HIERARCHY
ROOT Bip001_Pelvis
{
  OFFSET 7.937 94.8971 -8.5489
  CHANNELS 6 Xposition Yposition Zposition Zrotation Xrotation Yrotation
  JOINT Bip001_Spine
  {
    OFFSET 1.44608e-005 10.4157 -0.0118244
    CHANNELS 3 Zrotation Xrotation Yrotation
    JOINT Bip001_L_Thigh
    {
      OFFSET 11.2582 -10.4157 0.0118432
      CHANNELS 3 Zrotation Xrotation Yrotation
      JOINT Bip001_L_Calf
      {
        OFFSET -0.720717 -44.8687 0.366937
        CHANNELS 3 Zrotation Xrotation Yrotation
        JOINT Bip001_L_Foot
        {
          OFFSET -0.664439 -41.3745 -3.62995
          CHANNELS 3 Zrotation Xrotation Yrotation
          JOINT Bip001_L_Toe0
          {
            OFFSET 0.0541047 -10.4146 13.4033
            CHANNELS 3 Zrotation Xrotation Yrotation
            End Site
            {
              OFFSET -1.04503e-005 0 7.70137
            }
          }
        }
      }
    }
    JOINT Bip001_R_Thigh
    {
      OFFSET -11.2582 -10.4156 0.0118122
      CHANNELS 3 Zrotation Xrotation Yrotation
      JOINT Bip001_R_Calf
      {
        OFFSET 0.72059 -44.8687 0.36676
        CHANNELS 3 Zrotation Xrotation Yrotation
        JOINT Bip001_R_Foot
        {
          OFFSET 0.664321 -41.3745 -3.62979
          CHANNELS 3 Zrotation Xrotation Yrotation
          JOINT Bip001_R_Toe0
          {
            OFFSET -0.05417 -10.4146 13.4033
            CHANNELS 3 Zrotation Xrotation Yrotation
            End Site
            {
              OFFSET -1.04873e-005 0 7.70137
            }
          }
        }
      }
    }
    JOINT Bip001_Spine1
    {
      OFFSET 1.90638e-005 14.8539 1.10727
      CHANNELS 3 Zrotation Xrotation Yrotation
      JOINT Bip001_Spine2
      {
        OFFSET 2.28934e-005 14.7848 -1.7233
        CHANNELS 3 Zrotation Xrotation Yrotation
        JOINT Bip001_Neck
        {
          OFFSET 2.24514e-005 15.6905 -0.498826
          CHANNELS 3 Zrotation Xrotation Yrotation
          JOINT Bip001_L_Clavicle
          {
            OFFSET 6.17691 -0.000591152 0.00852867
            CHANNELS 3 Zrotation Xrotation Yrotation
            JOINT Bip001_L_UpperArm
            {
              OFFSET 11.773 -0.0611878 0.00197697
              CHANNELS 3 Zrotation Xrotation Yrotation
              JOINT Bip001_L_Forearm
              {
                OFFSET 26.4515 0.0817568 -2.19579
                CHANNELS 3 Zrotation Xrotation Yrotation
                JOINT Bip001_L_Hand
                {
                  OFFSET 32.8677 0.156744 1.67112
                  CHANNELS 3 Zrotation Xrotation Yrotation
                  JOINT Bip001_L_Finger0
                  {
                    OFFSET 6.16268 -2.25226 6.01674
                    CHANNELS 3 Zrotation Xrotation Yrotation
                    End Site
                    {
                      OFFSET 4.30499 -1.46662 0.618148
                    }
                  }
                  JOINT Bip001_L_Finger1
                  {
                    OFFSET 11.2957 -0.718374 -0.201963
                    CHANNELS 3 Zrotation Xrotation Yrotation
                    End Site
                    {
                      OFFSET 6.31952 -0.405163 -0.0802303
                    }
                  }
                }
              }
            }
          }
          JOINT Bip001_R_Clavicle
          {
            OFFSET -6.17691 -0.000574027 0.00851165
            CHANNELS 3 Zrotation Xrotation Yrotation
            JOINT Bip001_R_UpperArm
            {
              OFFSET -11.773 -0.0611516 0.00194365
              CHANNELS 3 Zrotation Xrotation Yrotation
              JOINT Bip001_R_Forearm
              {
                OFFSET -26.4514 0.0822334 -2.19736
                CHANNELS 3 Zrotation Xrotation Yrotation
                JOINT Bip001_R_Hand
                {
                  OFFSET -32.8677 0.156817 1.67144
                  CHANNELS 3 Zrotation Xrotation Yrotation
                  JOINT Bip001_R_Finger0
                  {
                    OFFSET -6.1627 -2.25224 6.0167
                    CHANNELS 3 Zrotation Xrotation Yrotation
                    End Site
                    {
                      OFFSET -4.30499 -1.46662 0.618134
                    }
                  }
                  JOINT Bip001_R_Finger1
                  {
                    OFFSET -11.2958 -0.718344 -0.201994
                    CHANNELS 3 Zrotation Xrotation Yrotation
                    End Site
                    {
                      OFFSET -6.31952 -0.405146 -0.0802475
                    }
                  }
                }
              }
            }
          }
          JOINT Bip001_Head
          {
            OFFSET 1.11782e-005 11.4912 2.09908
            CHANNELS 3 Zrotation Xrotation Yrotation
            End Site
            {
              OFFSET 2.95144e-005 21.2823 -2.83069e-005
            }
          }
        }
      }
    }
  }
}
MOTION
Frames:	9
Frame Time:	0.04
6.85492 95.6073 -6.86688 -0.682005 1.26725 9.52678 -0.660197 -0.308294 1.49291 6.56278 -9.67767 5.44183 -0.880182 14.432 -4.21944 -3.36361 -5.23637 -2.81397 0.648799 -9.96254 -0.106618 -6.05255 -2.83442 -2.81503 0.861653 12.4341 -1.22249 -0.406938 -8.53382 -14.1016 -0.15295 -11.6235 0.500827 -1.36339 -0.634306 2.98076 -1.3634 -0.634308 2.98078 -2.69428 -4.96212 -5.37469 -27.4181 8.42868 -7.08372 -47.5136 37.0289 5.50803 12.4552 3.12326 -23.3298 -4.48755 -0.376115 -1.05124 6.36111e-015 -9.54166e-015 4.77083e-015 1.59028e-015 -9.54167e-015 6.36111e-015 -1.80343 5.88312 23.3684 16.5086 -21.8083 63.4634 -33.3934 3.89018 32.5787 -23.9806 9.11411 -12.1551 -3.18055e-015 -1.59028e-015 -7.95139e-016 -3.18055e-015 0 -7.95139e-016 0.119029 2.17921 -5.89458 
6.90158 95.6146 -6.81256 -0.644487 0.994721 9.22036 -0.638747 -0.282185 1.42164 6.56588 -9.29067 5.59893 -0.888073 14.3864 -4.14276 -3.34886 -5.31644 -2.70163 0.650901 -9.94939 -0.0946809 -6.08461 -2.59308 -2.58927 0.878899 12.3584 -1.18545 -0.417902 -8.46535 -13.9977 -0.112876 -11.6437 0.538399 -1.3203 -0.583125 2.83911 -1.3203 -0.583121 2.83882 -2.4807 -4.24284 -5.06745 -27.7228 7.76014 -7.21771 -47.662 37.2457 5.7665 12.3496 3.63449 -22.6289 -5.13261 -0.408381 -0.973056 4.77083e-015 3.18055e-015 -1.59028e-015 3.18055e-015 9.54167e-015 -1.59028e-015 -2.62891 4.96018 23.2779 19.0618 -20.9579 63.3162 -33.7811 3.09002 34.6716 -23.6659 10.2858 -13.2605 -8.82781e-032 3.18055e-015 1.59028e-015 -3.18055e-015 1.59028e-015 7.95139e-016 -0.037698 2.68471 -5.52623 
6.94702 95.6184 -6.84092 -0.722596 0.902232 8.76323 -0.638931 -0.26473 1.47006 6.65075 -9.21965 5.71185 -0.855626 14.5265 -3.95694 -3.34696 -5.44419 -2.61896 0.651798 -9.94726 -0.0915484 -6.02913 -2.60241 -2.8658 0.78195 12.2642 -0.856217 -0.401686 -8.30874 -13.6561 -0.0585773 -11.6626 0.570446 -1.32031 -0.546363 2.93608 -1.32031 -0.546363 2.93609 -2.05794 -3.69621 -5.0895 -28.3622 7.26841 -7.51699 -47.3807 37.4866 5.73875 12.2439 4.59645 -21.6256 -5.34618 -0.353157 -1.3587 4.77083e-015 -6.36111e-015 4.77083e-015 4.77083e-015 -3.18056e-015 4.77083e-015 -1.92168 4.68626 23.1432 19.6296 -20.8175 63.0405 -36.8291 5.34596 36.5349 -24.9883 10.1436 -12.2399 1.59028e-015 1.59028e-015 -0 1.59028e-015 1.59028e-015 -3.97569e-016 -0.0713702 3.34147 -5.4401 
7.0011 95.6123 -6.89883 -0.754685 0.7786 8.3213 -0.620479 -0.227318 1.51839 6.67151 -9.15369 5.64726 -0.901331 14.67 -3.76632 -3.313 -5.56559 -2.37694 0.655409 -9.94379 -0.0746701 -6.06787 -2.65762 -2.82143 0.782553 12.2804 -0.612027 -0.361848 -8.23762 -13.519 -0.0803014 -11.6605 0.555947 -1.28234 -0.471596 3.03295 -1.28234 -0.471597 3.03296 -1.90494 -3.29334 -5.0253 -28.7762 6.96361 -7.79115 -47.1683 37.5686 5.60231 11.8753 4.71296 -20.8676 -5.32855 -0.318936 -1.24727 -3.18055e-015 -9.54166e-015 4.77083e-015 -3.18055e-015 -1.27222e-014 6.36111e-015 -0.376228 4.70957 22.4104 20.0345 -19.8707 61.5015 -41.059 4.98369 41.4414 -25.161 10.2724 -11.4401 -1.59028e-015 3.18055e-015 7.95139e-016 -1.59028e-015 3.18056e-015 -1.19271e-015 -0.169197 4.17408 -5.31611 
7.08097 95.6011 -6.96078 -0.694125 0.588838 7.88042 -0.598766 -0.178833 1.4552 6.59979 -8.9706 5.82039 -0.885584 14.742 -3.61974 -3.28404 -5.64905 -2.23653 0.660552 -9.93954 -0.0499501 -6.21308 -2.7059 -2.75384 0.769626 12.4144 -0.446876 -0.184843 -8.26891 -13.2377 -0.183569 -11.6401 0.588812 -1.25198 -0.373523 2.90643 -1.25198 -0.373523 2.90644 -1.71366 -2.35554 -4.56054 -28.9905 6.27728 -8.408 -47.2753 37.622 5.6453 11.4574 4.40258 -20.3696 -4.87567 -0.316908 -1.03446 2.64834e-031 -3.18055e-015 4.77083e-015 1.59028e-015 0 3.18055e-015 1.88228 4.36883 21.519 22.5174 -19.3912 60.5453 -43.0483 4.20601 48.4389 -25.398 10.089 -10.245 -1.59028e-015 3.18055e-015 -2.38542e-015 1.59028e-015 9.54167e-015 -1.59028e-015 -0.439949 4.7806 -4.76373 
7.15801 95.5984 -7.04657 -0.634731 0.419041 7.43434 -0.563921 -0.103008 1.31493 6.5479 -8.80497 6.03067 -0.950753 14.743 -3.3893 -3.22401 -5.67457 -2.11363 0.66629 -9.93109 -0.0218856 -6.37126 -2.81953 -2.61064 0.745794 12.527 -0.339401 0.00868935 -8.25988 -12.902 -0.285082 -11.6294 0.628978 -1.19216 -0.219706 2.62655 -1.19619 -0.219696 2.62607 -1.82522 -1.35878 -3.78044 -28.855 5.60637 -9.02602 -47.3244 37.686 5.42122 11.2704 4.43307 -19.9876 -4.80192 -0.262769 -1.04842 -5.29669e-031 9.54166e-015 3.18055e-015 0 6.36111e-015 -0 5.07155 4.09837 20.5942 25.1351 -18.9568 58.9691 -42.924 2.58657 57.3103 -25.1223 8.9555 -8.66906 1.59028e-015 3.18055e-015 -0 1.59028e-015 9.54167e-015 7.95139e-016 -0.482636 5.60299 -4.04417 
7.2609 95.5975 -7.18728 -0.54154 0.330652 6.96666 -0.53131 -0.0261279 1.16464 6.40816 -8.70998 6.08281 -1.02419 14.6607 -3.00217 -3.17108 -5.64156 -1.93902 0.670577 -9.924 -0.00138579 -6.61755 -3.08249 -2.45544 0.756172 12.7064 -0.365452 0.243854 -8.25208 -12.442 -0.39782 -11.6162 0.690499 -1.14654 -0.063853 2.32527 -1.14654 -0.063853 2.32528 -1.96069 -0.349957 -2.99674 -28.8701 4.97436 -9.7444 -47.1364 38.1169 5.23581 11.1537 4.34119 -19.8277 -4.95491 -0.321467 -1.14355 -1.59028e-015 -9.54166e-015 3.18055e-015 -3.18055e-015 -9.54167e-015 3.18055e-015 8.16719 3.70541 19.7509 29.2341 -18.611 56.3569 -43.9761 2.44733 67.8286 -25.6242 8.58416 -6.68195 1.59028e-015 0 -0 1.59028e-015 0 -0 -0.560261 6.78547 -3.3143 
7.31809 95.5838 -7.26501 -0.498172 -0.0111498 6.42654 -0.495975 0.119427 1.06079 6.39895 -8.48267 6.86131 -0.90752 14.7905 -3.1346 -3.16175 -5.73357 -2.01004 0.67678 -9.92361 0.0319843 -6.6871 -3.15806 -2.37898 0.636391 12.8937 -0.0613514 0.41508 -8.25299 -12.1635 -0.469774 -11.6126 0.73237 -1.08719 0.228839 2.11866 -1.08719 0.228839 2.11866 -1.76276 0.857793 -2.42357 -29.0132 4.0864 -10.5373 -47.0633 38.4053 4.93992 11.1177 3.82943 -20.0592 -5.14094 -0.414628 -0.733773 -1.59028e-015 1.27222e-014 1.59028e-015 1.59028e-015 6.36111e-015 -0 11.7915 3.17233 18.6807 31.2756 -18.173 52.2142 -43.6153 2.73219 78.1004 -27.1128 8.93272 -4.41425 1.59028e-015 0 -1.59028e-015 1.59028e-015 0 -7.95139e-016 -0.821278 7.60758 -2.64481 
7.35897 95.5778 -7.38895 -0.489409 -0.211427 5.94884 -0.476574 0.234795 0.976126 6.42122 -8.39782 6.93067 -1.00049 14.8564 -2.88998 -3.12266 -5.7793 -1.77998 0.670575 -9.91278 0.0617761 -6.76475 -3.3286 -2.16371 0.660375 13.0069 0.0487173 0.522121 -8.19996 -11.9398 -0.545771 -11.603 0.767131 -1.05973 0.460614 1.9498 -1.05973 0.460614 1.94979 -1.2057 2.36653 -2.167 -29.3113 2.86837 -11.5288 -47.3496 38.7576 4.88326 11.3018 3.60039 -20.3133 -4.87196 -0.407039 -0.798739 -3.18055e-015 6.36111e-015 -0 -1.59028e-015 6.36111e-015 -0 14.8892 2.34731 18.3354 31.692 -16.7693 45.8018 -43.3745 2.52846 86.6323 -26.9677 7.46747 -1.28615 -4.77083e-015 0 -4.77083e-015 -3.18055e-015 -3.18056e-015 -3.18055e-015 -1.24056 8.26728 -2.12346 
